<svg height='300px' width='300px'  fill="#FFFFFF" xmlns:dc="http://purl.org/dc/elements/1.1/" xmlns:cc="http://creativecommons.org/ns#" xmlns:rdf="http://www.w3.org/1999/02/22-rdf-syntax-ns#" xmlns:svg="http://www.w3.org/2000/svg" xmlns="http://www.w3.org/2000/svg" xmlns:sodipodi="http://sodipodi.sourceforge.net/DTD/sodipodi-0.dtd" xmlns:inkscape="http://www.inkscape.org/namespaces/inkscape" version="1.1" viewBox="0 0 32 32" x="0px" y="0px"><g><path style="color:#000000;font-style:normal;font-variant:normal;font-weight:normal;font-stretch:normal;font-size:medium;line-height:normal;font-family:sans-serif;font-variant-ligatures:normal;font-variant-position:normal;font-variant-caps:normal;font-variant-numeric:normal;font-variant-alternates:normal;font-feature-settings:normal;text-indent:0;text-align:start;text-decoration:none;text-decoration-line:none;text-decoration-style:solid;text-decoration-color:#000000;letter-spacing:normal;word-spacing:normal;text-transform:none;writing-mode:lr-tb;direction:ltr;text-orientation:mixed;dominant-baseline:auto;baseline-shift:baseline;text-anchor:start;white-space:normal;shape-padding:0;clip-rule:nonzero;display:inline;overflow:visible;visibility:visible;opacity:1;isolation:auto;mix-blend-mode:normal;color-interpolation:sRGB;color-interpolation-filters:linearRGB;solid-color:#000000;solid-opacity:1;vector-effect:none;fill:#FFFFFF;fill-opacity:1;fill-rule:nonzero;stroke:none;stroke-width:1;stroke-linecap:butt;stroke-linejoin:round;stroke-miterlimit:4;stroke-dasharray:none;stroke-dashoffset:0;stroke-opacity:1;color-rendering:auto;image-rendering:auto;shape-rendering:auto;text-rendering:auto;enable-background:accumulate" d="m 4.23452,5.59361 c -0.15487,0.0894 -0.2502,0.25475 -0.25,0.43359 v 16.62306 c 5e-4,0.17814 0.0957,0.34256 0.25,0.43164 l 14.39258,8.31055 c 0.1547,0.0893 0.3453,0.0893 0.5,0 l 8.63672,-4.98633 c 0.15427,-0.0891 0.2495,-0.2535 0.25,-0.43164 V 9.39245 c 0.0158,-0.1933 -0.0817,-0.37827 -0.25,-0.47461 L 13.36929,0.60729 c -0.0726,-0.0417 -0.15455,-0.0646 -0.24225,-0.0666 -0.0877,-0.002 -0.17825,0.0209 -0.218,0.0437 z M 13.11931,1.61901 26.51189,9.35143 18.87712,13.76159 5.48454,6.02721 Z m 0.0117,0.91601 c -0.0917,-0.002 -0.18222,0.0207 -0.26172,0.0664 L 7.68765,5.59361 c -0.3346,0.19223 -0.3346,0.67495 0,0.86718 L 18.6271,12.7772 c 0.1547,0.0893 0.3453,0.0893 0.5,0 l 5.18164,-2.99219 c 0.3346,-0.19223 0.3346,-0.67495 0,-0.86718 L 13.36929,2.60142 c -0.0726,-0.0417 -0.15455,-0.0646 -0.23828,-0.0664 z m -0.0117,1.07813 9.93945,5.73828 -0.72656,0.41992 -8.96289,-5.17383 c -0.0869,-0.0505 -0.18691,-0.0736 -0.28711,-0.0664 -0.0836,0.007 -0.16421,0.0342 -0.23438,0.0801 L 9.66618,6.44715 8.93767,6.02723 Z m -0.5,2.2832 V 8.15221 L 11.89275,7.73229 V 6.31627 Z m 1,0 0.72851,0.41992 V 9.15026 L 13.61931,8.73034 Z m -2.72656,0.9961 V 7.15612 L 10.66423,7.0233 Z m -5.90821,0.002 13.39258,7.73242 v 3.5 l -0.72656,-0.41992 v -2.3711 c 2e-4,-0.17884 -0.0951,-0.34416 -0.25,-0.43359 L 6.46111,8.58585 c -0.0726,-0.0417 -0.15455,-0.0646 -0.23829,-0.0664 -0.28069,-0.007 -0.51176,0.21923 -0.51171,0.5 v 10.63867 c 0.001,0.38425 0.41719,0.62371 0.75,0.43164 l 5.18164,-2.99219 c 0.15427,-0.0891 0.2495,-0.2535 0.25,-0.43164 v -3.78711 l 0.72656,0.41993 v 4.07617 l -7.63477,4.4082 z m 10.36328,0 5.98438,3.45312 -2.45508,1.41797 -3.5293,-2.03711 z m -8.63671,2.99219 0.72656,0.41992 v 8.06445 l -0.72656,0.41992 z m 20.30273,0.33203 V 25.10734 L 13.61931,17.37492 v -3.49805 l 0.72851,0.41992 v 2.36914 c 5e-4,0.17814 0.0957,0.34256 0.25,0.43164 l 10.9375,6.31641 c 0.33281,0.19207 0.74888,-0.0474 0.75,-0.43164 V 12.34367 c 8e-5,-0.28156 -0.23222,-0.50767 -0.51367,-0.5 -0.0831,0.002 -0.16429,0.025 -0.23633,0.0664 l -5.18164,2.99219 c -0.15487,0.0894 -0.2502,0.25475 -0.25,0.43359 v 3.78711 l -0.72656,-0.41992 v -4.07617 z m -18.57617,0.66406 2.45508,1.41797 v 4.07617 l -2.45508,1.41797 z m 16.84765,2.32812 v 8.9043 l -0.72656,-0.41992 v -8.06445 z m -1.72656,0.9961 v 6.91211 l -2.45508,-1.41797 v -4.07617 z m -8.21094,0.66601 1.30274,0.75196 v 1.5039 l -1.30274,-0.75195 z m -2.22851,3.36719 13.39453,7.73438 -7.63672,4.4082 -13.39258,-7.73242 z m -0.0371,0.91797 c -0.0751,0.006 -0.14783,0.0285 -0.21289,0.0664 L 7.68768,22.2167 c -0.33236,0.19266 -0.33236,0.67258 0,0.86524 l 10.93945,6.3164 c 0.1547,0.0893 0.3453,0.0893 0.5,0 l 5.18164,-2.99218 c 0.33236,-0.19266 0.33236,-0.67258 0,-0.86524 l -10.93945,-6.3164 c -0.0869,-0.0505 -0.18691,-0.0736 -0.28711,-0.0664 z m 0.0371,1.07617 3.53125,2.03906 v 2.83594 l -5.98633,-3.45898 z m -3.45508,1.99414 8.71289,5.03125 v 0.83985 L 8.93767,22.64835 Z m 7.98633,0.62305 0.72656,0.41992 v 2.83399 l -0.72656,-0.41993 z m 1.72656,0.99609 0.72656,0.41993 v 1.41796 l -0.72656,0.41993 z m 1.72656,0.99805 0.22657,0.13086 -0.22657,0.13086 z m 1.22852,0.70899 0.72656,0.41992 -3.68164,2.125 v -0.83985 z"></path></g></svg>